<svg width="111" height="51" viewBox="0 0 111 51" fill="none" xmlns="http://www.w3.org/2000/svg">
<path d="M24.0526 15.5927C26.071 17.5719 27.0801 20.5151 27.0801 24.4081V37.533C27.0801 38.7121 26.1314 39.6666 24.9595 39.6666H21.5227C20.3508 39.6666 19.4021 38.7121 19.4021 37.533V25.5966C19.4021 23.4816 18.9417 21.9048 18.0255 20.866C17.1047 19.8272 15.7793 19.3079 14.04 19.3079C12.1007 19.3079 10.5614 19.9115 9.41271 21.114C8.26403 22.3212 7.68736 24.1086 7.68736 26.4903V37.5049C7.68736 38.6981 6.72469 39.6666 5.5388 39.6666H2.14855C0.962664 39.6666 0 38.6981 0 37.5049V5.07404C0 3.88087 0.962664 2.91229 2.14855 2.91229H5.5295C6.71539 2.91229 7.67806 3.88087 7.67806 5.07404V13.8474C7.67806 14.5726 8.4826 15.0312 9.08252 14.6241C9.77545 14.1515 10.5381 13.7538 11.3706 13.4403C12.8123 12.8975 14.3888 12.6214 16.0956 12.6214C19.3835 12.6167 22.0343 13.6087 24.0526 15.5927Z" fill="#3865F4"/>
<path d="M60.704 15.1809V37.5236C60.704 38.7075 59.7507 39.662 58.5787 39.662H55.8023C54.4862 39.662 53.4213 38.5905 53.4213 37.2663V37.1306C53.4213 36.9013 53.1469 36.7937 52.9888 36.9575C52.0633 37.8886 50.9937 38.6186 49.7799 39.1426C48.3661 39.7556 46.8407 40.0597 45.1991 40.0597C41.7205 40.0597 38.9627 39.0537 36.9258 37.037C34.8888 35.025 33.875 32.0351 33.875 28.0719V15.1809C33.875 13.9831 34.8377 13.0145 36.0282 13.0145H39.3999C40.5904 13.0145 41.5531 13.9831 41.5531 15.1809V26.9348C41.5531 31.2303 43.3435 33.3733 46.9198 33.3733C48.7568 33.3733 50.2356 32.7697 51.3518 31.5672C52.4679 30.3646 53.026 28.5725 53.026 26.1909V15.1809C53.026 13.9831 53.9886 13.0145 55.1792 13.0145H58.5508C59.7414 13.0145 60.704 13.9831 60.704 15.1809Z" fill="#3865F4"/>
<path d="M93.034 13.6636C94.2059 13.6636 95.1593 14.6228 95.1593 15.8019V35.8565C95.1593 40.7415 93.8943 44.3772 91.3691 46.7542C88.8392 49.1312 85.1467 50.3196 80.2915 50.3196C77.729 50.3196 75.3014 50.0062 73.0041 49.3792C71.5624 48.9861 70.2696 48.4808 69.1395 47.8631C68.0791 47.2876 67.6699 45.9681 68.2559 44.9059L69.2325 43.1279C69.7952 42.1078 71.0601 41.7148 72.0786 42.2622C72.8274 42.6646 73.6598 43.0156 74.5806 43.3057C76.2874 43.8485 77.9941 44.1245 79.7009 44.1245C82.361 44.1245 84.3189 43.5209 85.5838 42.3184C86.8488 41.1112 87.4812 39.291 87.4812 36.8438V35.7068C85.4769 37.92 82.6865 39.0243 79.1102 39.0243C76.6827 39.0243 74.4597 38.4862 72.4367 37.4147C70.4184 36.3432 68.8186 34.8318 67.6373 32.8806C66.4561 30.9341 65.8655 28.6882 65.8655 26.1427C65.8655 23.602 66.4561 21.356 67.6373 19.4048C68.8186 17.4583 70.4184 15.947 72.4367 14.8708C74.455 13.7993 76.678 13.2612 79.1102 13.2612C82.7609 13.2612 85.5792 14.4075 87.5696 16.705C87.6766 16.8313 87.8765 16.7611 87.8765 16.5974V15.975C87.8765 14.6977 88.9089 13.6589 90.1785 13.6589H93.034V13.6636ZM85.635 30.878C86.9325 29.6708 87.5789 28.0986 87.5789 26.1474C87.5789 24.2009 86.9278 22.6241 85.635 21.4168C84.3375 20.2143 82.6726 19.6107 80.6356 19.6107C78.5987 19.6107 76.9245 20.2143 75.613 21.4168C74.3016 22.6241 73.6459 24.2009 73.6459 26.1474C73.6459 28.0986 74.3016 29.6708 75.613 30.878C76.9245 32.0852 78.5987 32.6841 80.6356 32.6841C82.6726 32.6841 84.3375 32.0852 85.635 30.878Z" fill="#3865F4"/>
<path d="M101.978 8.0593C101.09 7.23578 100.648 6.21106 100.648 4.98981C100.648 3.76857 101.09 2.74384 101.978 1.92032C102.866 1.0968 104.015 0.680359 105.424 0.680359C106.833 0.680359 107.982 1.07808 108.87 1.86885C109.758 2.65962 110.2 3.65159 110.2 4.84008C110.2 6.12683 109.758 7.19367 108.87 8.0359C107.982 8.87814 106.833 9.29926 105.424 9.29926C104.015 9.29926 102.866 8.8875 101.978 8.0593ZM103.731 13.0145H107.117C108.303 13.0145 109.265 13.983 109.265 15.1762V37.5049C109.265 38.698 108.303 39.6666 107.117 39.6666H103.731C102.545 39.6666 101.582 38.698 101.582 37.5049V15.1762C101.582 13.983 102.545 13.0145 103.731 13.0145Z" fill="#3865F4"/>
</svg>
